<svg viewBox="0 0 226 85" fill="none" xmlns="http://www.w3.org/2000/svg">
<g clip-path="url(#clip0_832_593)">
<path d="M46.45 28.04V32.78C42.25 29.93 37.19 28.27 31.74 28.27C17.25 28.27 5.5 40.02 5.5 54.51C5.5 61.1 7.94 67.11 11.95 71.71L6.99 75.53C6.33 75.18 5.57 74.98 4.77 74.98C2.14 74.98 0 77.11 0 79.75C0 82.39 2.13 84.52 4.77 84.52C7.41 84.52 9.54 82.39 9.54 79.75C9.54 79.23 9.45 78.73 9.3 78.26L14.95 73.91L25.72 65.72C21.73 63.57 19.01 59.36 19.01 54.51C19.01 47.48 24.71 41.79 31.73 41.79C37.79 41.79 42.86 46.04 44.13 51.71L60.43 39.31V28.05H46.44L46.45 28.04Z" fill="#15fff7"/>
<path d="M31.73 67.23C31.08 67.23 30.45 67.17 29.83 67.07L17.43 76.5C21.54 79.18 26.45 80.74 31.72 80.74C36.99 80.74 42.24 79.08 46.43 76.23V81.07H60.42V43.8L44.34 56.03C43.59 62.34 38.23 67.23 31.72 67.23H31.73Z" fill="#15fff7"/>
<path d="M80.12 31.64C79.13 31.64 78.21 31.36 77.42 30.88L68.52 37.65V81.42H82.51V31.04C81.79 31.42 80.98 31.64 80.12 31.64Z" fill="#15fff7"/>
<path d="M75.2 28.08C75.03 27.57 74.94 27.03 74.94 26.46C74.94 23.6 77.26 21.28 80.12 21.28C80.98 21.28 81.8 21.49 82.51 21.87V13.85H68.52V33.16L75.2 28.08Z" fill="#15fff7"/>
<path d="M108.43 47.03C110.75 43.92 114.45 41.89 118.63 41.89C125.66 41.89 131.35 47.59 131.35 54.61C131.35 57.82 130.15 60.75 128.18 62.99L129.46 64.02C130.1 63.7 130.81 63.52 131.57 63.52C132.47 63.52 133.31 63.77 134.02 64.21L144.79 56.38C144.83 55.79 144.86 55.2 144.86 54.61C144.86 40.12 133.11 28.37 118.62 28.37C113.98 28.37 109.62 29.58 105.84 31.69V0H92.38V34.07L108.42 47.03H108.43Z" fill="#15fff7"/>
<path d="M136.18 67.07C136.28 67.46 136.34 67.87 136.34 68.29C136.34 70.92 134.21 73.06 131.57 73.06C128.93 73.06 126.8 70.93 126.8 68.29C126.8 67.73 126.9 67.2 127.08 66.7L125.41 65.35C123.44 66.6 121.12 67.33 118.62 67.33C111.59 67.33 105.9 61.63 105.9 54.61C105.9 53.07 106.19 51.59 106.69 50.22L92.38 38.66V54.66C92.41 69.12 104.14 80.84 118.62 80.84C130.76 80.84 140.97 72.59 143.96 61.4L136.17 67.06L136.18 67.07Z" fill="#15fff7"/>
<path d="M165.95 41.01V13.85H151.96V51.18L165.95 41.01Z" fill="#15fff7"/>
<path d="M151.96 55.6V81.42H165.95V45.43L151.96 55.6Z" fill="#15fff7"/>
<path d="M225.09 28H195.86L201.59 23.67C202.23 23.98 202.94 24.17 203.7 24.17C206.33 24.17 208.47 22.04 208.47 19.4C208.47 16.76 206.34 14.63 203.7 14.63C201.06 14.63 198.93 16.76 198.93 19.4C198.93 19.96 199.03 20.49 199.21 20.99L189.93 28.01L174.29 39.38H202.48L173.87 80.85H224.71V69.36H196.48L225.09 28.01V28Z" fill="#15fff7"/>
</g>
<defs>
<clipPath id="clip0_832_593">
<rect width="225.09" height="84.51" fill="white"/>
</clipPath>
</defs>
</svg>